HIERARCHY
ROOT Hips
{
	OFFSET 0.000000 97.167313 0.000000
	CHANNELS 6 Xposition Yposition Zposition Xrotation Yrotation Zrotation
	JOINT Spine
	{
		OFFSET 0.000000 13.784798 0.064400
		CHANNELS 3 Xrotation Yrotation Zrotation
		JOINT Spine1
		{
			OFFSET 0.000000 12.037903 0.404700
			CHANNELS 3 Xrotation Yrotation Zrotation
			JOINT Spine2
			{
				OFFSET 0.000000 17.795601 0.420200
				CHANNELS 3 Xrotation Yrotation Zrotation
				JOINT Neck
				{
					OFFSET 0.000000 39.131302 11.954600
					CHANNELS 3 Xrotation Yrotation Zrotation
					JOINT Head
					{
						OFFSET 0.000000 14.456192 15.627699
						CHANNELS 3 Xrotation Yrotation Zrotation
						JOINT HeadTop_End
						{
							OFFSET 0.000000 15.703506 7.603401
							CHANNELS 3 Xrotation Yrotation Zrotation
							End Site
							{
								OFFSET 0.000000 17.447403 0.000000
							}
						}
					}
				}
				JOINT LeftShoulder
				{
					OFFSET 17.399500 24.608795 1.168800
					CHANNELS 3 Xrotation Yrotation Zrotation
					JOINT LeftArm
					{
						OFFSET 18.980635 5.765305 1.818600
						CHANNELS 3 Xrotation Yrotation Zrotation
						JOINT LeftForeArm
						{
							OFFSET 49.290169 0.000000 0.000000
							CHANNELS 3 Xrotation Yrotation Zrotation
							JOINT LeftHand
							{
								OFFSET 31.562012 0.000000 0.000000
								CHANNELS 3 Xrotation Yrotation Zrotation
								JOINT LeftHandThumb1
								{
									OFFSET 6.133995 -4.388519 7.076070
									CHANNELS 3 Xrotation Yrotation Zrotation
									JOINT LeftHandThumb2
									{
										OFFSET 6.037666 -3.485840 3.485847
										CHANNELS 3 Xrotation Yrotation Zrotation
										JOINT LeftHandThumb3
										{
											OFFSET 6.496506 -3.750763 3.750761
											CHANNELS 3 Xrotation Yrotation Zrotation
											JOINT LeftHandThumb4
											{
												OFFSET 5.616882 -3.242905 3.242910
												CHANNELS 3 Xrotation Yrotation Zrotation
												End Site
												{
													OFFSET -1.254608 7.132141 0.375429
												}
											}
										}
									}
								}
								JOINT LeftHandPinky1
								{
									OFFSET 18.920792 -0.453171 -11.426712
									CHANNELS 3 Xrotation Yrotation Zrotation
									JOINT LeftHandPinky2
									{
										OFFSET 4.919586 0.000000 0.000000
										CHANNELS 3 Xrotation Yrotation Zrotation
										JOINT LeftHandPinky3
										{
											OFFSET 5.233047 0.000000 0.000000
											CHANNELS 3 Xrotation Yrotation Zrotation
											JOINT LeftHandPinky4
											{
												OFFSET 5.571716 0.000000 0.000000
												CHANNELS 3 Xrotation Yrotation Zrotation
												End Site
												{
													OFFSET -3.459808 4.342407 -0.466164
												}
											}
										}
									}
								}
								JOINT LeftHandRing1
								{
									OFFSET 22.726120 -0.094986 -6.500475
									CHANNELS 3 Xrotation Yrotation Zrotation
									JOINT LeftHandRing2
									{
										OFFSET 6.408615 0.000000 0.000000
										CHANNELS 3 Xrotation Yrotation Zrotation
										JOINT LeftHandRing3
										{
											OFFSET 6.150223 0.000000 0.000000
											CHANNELS 3 Xrotation Yrotation Zrotation
											JOINT LeftHandRing4
											{
												OFFSET 6.145386 0.000000 0.000000
												CHANNELS 3 Xrotation Yrotation Zrotation
												End Site
												{
													OFFSET -3.671402 4.923981 -0.202372
												}
											}
										}
									}
								}
								JOINT LeftHandMiddle1
								{
									OFFSET 23.373947 0.000000 0.000001
									CHANNELS 3 Xrotation Yrotation Zrotation
									JOINT LeftHandMiddle2
									{
										OFFSET 6.996567 0.000000 0.000000
										CHANNELS 3 Xrotation Yrotation Zrotation
										JOINT LeftHandMiddle3
										{
											OFFSET 7.015945 0.000000 0.000000
											CHANNELS 3 Xrotation Yrotation Zrotation
											JOINT LeftHandMiddle4
											{
												OFFSET 7.721573 0.000000 0.000000
												CHANNELS 3 Xrotation Yrotation Zrotation
												End Site
												{
													OFFSET -4.651108 6.158463 0.251582
												}
											}
										}
									}
								}
								JOINT LeftHandIndex1
								{
									OFFSET 21.310577 -0.490082 6.209344
									CHANNELS 3 Xrotation Yrotation Zrotation
									JOINT LeftHandIndex2
									{
										OFFSET 7.536453 0.000000 0.000000
										CHANNELS 3 Xrotation Yrotation Zrotation
										JOINT LeftHandIndex3
										{
											OFFSET 7.512344 0.000000 0.000000
											CHANNELS 3 Xrotation Yrotation Zrotation
											JOINT LeftHandIndex4
											{
												OFFSET 10.212402 0.000000 0.000001
												CHANNELS 3 Xrotation Yrotation Zrotation
												End Site
												{
													OFFSET -5.180801 8.690506 1.388433
												}
											}
										}
									}
								}
							}
						}
					}
				}
				JOINT RightShoulder
				{
					OFFSET -17.399500 24.608795 1.168800
					CHANNELS 3 Xrotation Yrotation Zrotation
					JOINT RightArm
					{
						OFFSET -18.980635 5.765305 1.818600
						CHANNELS 3 Xrotation Yrotation Zrotation
						JOINT RightForeArm
						{
							OFFSET -49.290169 0.000000 0.000000
							CHANNELS 3 Xrotation Yrotation Zrotation
							JOINT RightHand
							{
								OFFSET -31.562012 0.000000 0.000000
								CHANNELS 3 Xrotation Yrotation Zrotation
								JOINT RightHandThumb1
								{
									OFFSET -6.133995 -4.388519 7.076070
									CHANNELS 3 Xrotation Yrotation Zrotation
									JOINT RightHandThumb2
									{
										OFFSET -6.037666 -3.485840 3.485847
										CHANNELS 3 Xrotation Yrotation Zrotation
										JOINT RightHandThumb3
										{
											OFFSET -6.496506 -3.750763 3.750761
											CHANNELS 3 Xrotation Yrotation Zrotation
											JOINT RightHandThumb4
											{
												OFFSET -5.616882 -3.242905 3.242910
												CHANNELS 3 Xrotation Yrotation Zrotation
												End Site
												{
													OFFSET 1.254608 7.132141 0.375429
												}
											}
										}
									}
								}
								JOINT RightHandIndex1
								{
									OFFSET -21.310577 -0.490082 6.209344
									CHANNELS 3 Xrotation Yrotation Zrotation
									JOINT RightHandIndex2
									{
										OFFSET -7.536453 0.000000 0.000000
										CHANNELS 3 Xrotation Yrotation Zrotation
										JOINT RightHandIndex3
										{
											OFFSET -7.512344 0.000000 0.000000
											CHANNELS 3 Xrotation Yrotation Zrotation
											JOINT RightHandIndex4
											{
												OFFSET -10.212402 0.000000 0.000001
												CHANNELS 3 Xrotation Yrotation Zrotation
												End Site
												{
													OFFSET 5.180801 8.690506 1.388433
												}
											}
										}
									}
								}
								JOINT RightHandMiddle1
								{
									OFFSET -23.373947 0.000000 0.000001
									CHANNELS 3 Xrotation Yrotation Zrotation
									JOINT RightHandMiddle2
									{
										OFFSET -6.996567 0.000000 0.000000
										CHANNELS 3 Xrotation Yrotation Zrotation
										JOINT RightHandMiddle3
										{
											OFFSET -7.015945 0.000000 0.000000
											CHANNELS 3 Xrotation Yrotation Zrotation
											JOINT RightHandMiddle4
											{
												OFFSET -7.721573 0.000000 0.000000
												CHANNELS 3 Xrotation Yrotation Zrotation
												End Site
												{
													OFFSET 4.651108 6.158463 0.251582
												}
											}
										}
									}
								}
								JOINT RightHandRing1
								{
									OFFSET -22.726120 -0.094986 -6.500475
									CHANNELS 3 Xrotation Yrotation Zrotation
									JOINT RightHandRing2
									{
										OFFSET -6.408615 0.000000 0.000000
										CHANNELS 3 Xrotation Yrotation Zrotation
										JOINT RightHandRing3
										{
											OFFSET -6.150223 0.000000 0.000000
											CHANNELS 3 Xrotation Yrotation Zrotation
											JOINT RightHandRing4
											{
												OFFSET -6.145386 0.000000 0.000000
												CHANNELS 3 Xrotation Yrotation Zrotation
												End Site
												{
													OFFSET 3.671402 4.923981 -0.202372
												}
											}
										}
									}
								}
								JOINT RightHandPinky1
								{
									OFFSET -18.920792 -0.453171 -11.426712
									CHANNELS 3 Xrotation Yrotation Zrotation
									JOINT RightHandPinky2
									{
										OFFSET -4.919586 0.000000 0.000000
										CHANNELS 3 Xrotation Yrotation Zrotation
										JOINT RightHandPinky3
										{
											OFFSET -5.233047 0.000000 0.000000
											CHANNELS 3 Xrotation Yrotation Zrotation
											JOINT RightHandPinky4
											{
												OFFSET -5.571716 0.000000 0.000000
												CHANNELS 3 Xrotation Yrotation Zrotation
												End Site
												{
													OFFSET 3.459808 4.342407 -0.466164
												}
											}
										}
									}
								}
							}
						}
					}
				}
			}
		}
	}
	JOINT LeftUpLeg
	{
		OFFSET 19.899099 -7.885101 -3.429500
		CHANNELS 3 Xrotation Yrotation Zrotation
		JOINT LeftLeg
		{
			OFFSET 1.745560 -36.997807 10.304700
			CHANNELS 3 Xrotation Yrotation Zrotation
			JOINT LeftFoot
			{
				OFFSET -1.745558 -29.803308 -13.615400
				CHANNELS 3 Xrotation Yrotation Zrotation
				JOINT LeftToeBase
				{
					OFFSET 1.181900 -18.539904 15.226099
					CHANNELS 3 Xrotation Yrotation Zrotation
					JOINT LeftToe_End
					{
						OFFSET -0.863701 1.402801 16.534700
						CHANNELS 3 Xrotation Yrotation Zrotation
						End Site
						{
							OFFSET 0.000000 16.616566 0.000000
						}
					}
				}
			}
		}
	}
	JOINT RightUpLeg
	{
		OFFSET -19.899099 -7.885101 -3.429500
		CHANNELS 3 Xrotation Yrotation Zrotation
		JOINT RightLeg
		{
			OFFSET -1.745560 -36.997807 10.304700
			CHANNELS 3 Xrotation Yrotation Zrotation
			JOINT RightFoot
			{
				OFFSET 1.745558 -29.803308 -13.615400
				CHANNELS 3 Xrotation Yrotation Zrotation
				JOINT RightToeBase
				{
					OFFSET -1.181900 -18.539904 15.226099
					CHANNELS 3 Xrotation Yrotation Zrotation
					JOINT RightToe_End
					{
						OFFSET 0.863701 1.402801 16.534700
						CHANNELS 3 Xrotation Yrotation Zrotation
						End Site
						{
							OFFSET 0.000000 16.616566 0.000000
						}
					}
				}
			}
		}
	}
}
MOTION
Frames: 4
Frame Time: 0.033333
-1.149681 27.403534 42.640663 -26.156027 -4.297224 18.459787 16.458905 -2.581795 0.620508 9.682558 0.607848 0.021739 9.693976 0.514186 -0.254979 7.065303 -1.746542 4.139762 -2.705536 -0.361879 -11.707294 -0.000000 -0.000000 0.000000 3.633839 -29.059965 10.351175 -25.223009 -43.603333 -15.917162 0.000009 -44.290283 0.000002 5.450707 -23.285001 6.457479 6.513103 8.415989 -3.079501 12.414150 21.601831 22.037612 6.875707 -25.496758 34.132918 0.000000 -0.000000 -0.000001 -4.716877 0.604488 -27.688463 0.025111 0.542375 -5.300391 0.006162 -0.268878 2.624705 0.000001 0.000000 -0.000006 0.975561 5.505715 -29.980016 0.064835 0.870066 -8.522391 0.020674 0.492313 -4.809802 0.000000 -0.000002 0.000007 1.558443 6.764223 -25.962616 0.128051 1.219500 -11.989369 0.019589 0.479239 -4.681915 -0.000004 0.000006 0.000004 0.571030 4.746085 -25.141546 0.046976 0.741093 -7.251583 0.003228 0.194915 -1.902335 -0.000001 0.000001 0.000001 0.972643 15.338009 4.442805 8.898598 -27.553495 85.963702 0.000005 30.171674 0.000035 -57.557909 11.844423 -90.862410 -12.586269 11.844710 -21.172762 11.417021 -31.334586 -21.112533 4.616307 -17.143532 0.211489 0.000000 -0.000002 -0.000001 2.746297 8.319684 -14.799720 0.020043 -0.432073 5.311598 0.060538 -0.749284 9.238489 -0.000000 -0.000002 0.000004 1.427946 2.536598 -18.706544 0.070614 -0.808758 9.978790 0.198382 -1.346137 16.765968 -0.000001 -0.000001 -0.000001 -0.809428 -4.957242 -14.840664 0.009458 -0.297118 3.649660 0.111601 -1.014441 12.554526 0.000001 -0.000001 -0.000002 -12.177355 -11.205659 -19.190340 0.035382 -0.573609 7.059298 0.002077 -0.139002 1.706522 -0.000003 0.000004 -0.000000 -95.895036 -4.060880 22.950733 112.430699 -8.921339 -3.526409 -0.819433 -0.184366 -7.525753 -13.974570 -0.000001 -0.000000 0.000000 -0.000001 -0.000000 -123.977113 -0.145120 -11.226662 79.854043 8.520685 5.642438 15.854087 -0.307644 1.576831 3.378835 0.000000 0.000006 -0.000003 0.000000 -0.000002 
-1.063164 26.566376 40.942345 -25.764199 -3.478230 17.948941 16.005020 -2.919796 0.049145 9.360092 0.559762 -0.198625 9.367206 0.486936 -0.489655 6.870795 -1.717361 4.424623 -3.630107 0.051035 -11.582764 -0.000000 0.000000 0.000000 3.576220 -28.569660 10.207189 -26.167563 -44.254028 -16.761880 0.000019 -44.424513 0.000008 5.306428 -24.335399 6.778252 6.569364 8.697460 -3.312642 12.363226 21.506476 22.312997 7.090644 -25.780259 34.525240 0.000003 -0.000002 -0.000003 -4.756120 0.405803 -27.260202 0.023787 0.527944 -5.158999 0.006166 -0.269023 2.626180 0.000003 0.000001 -0.000004 0.939443 5.445428 -29.687571 0.061643 0.848516 -8.309743 0.019741 0.481034 -4.699523 -0.000002 0.000002 0.000005 1.526575 6.716748 -25.744047 0.122703 1.193993 -11.734888 0.018839 0.469907 -4.590592 -0.000002 0.000001 0.000006 0.563409 4.728878 -24.938172 0.044737 0.723359 -7.077212 0.002974 0.186924 -1.824387 -0.000000 -0.000000 0.000001 1.110761 16.466331 3.685657 8.718752 -27.912651 87.697928 0.000006 29.297021 -0.000003 -57.549180 10.303000 -90.330932 -11.494985 12.093816 -22.654371 11.287737 -31.476490 -20.952568 4.552949 -17.353634 0.377627 -0.000000 -0.000005 -0.000001 2.681734 7.322937 -16.137877 0.020230 -0.434120 5.336970 0.059876 -0.745177 9.187402 -0.000001 0.000000 0.000002 1.196693 1.723058 -19.699860 0.069008 -0.799615 9.865179 0.194642 -1.333677 16.606167 -0.000000 0.000000 -0.000004 -1.064838 -5.693806 -15.605273 0.008853 -0.287231 3.528292 0.108957 -1.002573 12.405020 -0.000001 0.000001 -0.000005 -10.967604 -11.759462 -19.438187 0.034023 -0.562456 6.921626 0.002032 -0.137833 1.692196 -0.000000 0.000000 0.000000 -101.547414 -4.981850 20.532377 110.616642 -6.634823 -2.424328 4.530205 -0.210284 -8.739701 -13.939079 -0.000007 -0.000005 -0.000003 0.000001 0.000000 -119.057547 1.608420 -11.801013 72.258627 8.482471 6.666657 9.334162 -0.667759 2.920991 3.150149 -0.000003 -0.000004 -0.000000 0.000000 0.000001 
-0.900064 25.828384 39.420433 -25.544170 -2.800210 17.052238 15.642356 -3.117062 -0.325542 9.090850 0.515580 -0.319698 9.096344 0.460066 -0.620871 6.815377 -1.709108 4.848785 -4.322760 0.444881 -11.361642 0.000000 0.000000 -0.000001 3.474806 -28.480260 9.753701 -26.766519 -44.294528 -17.672397 0.000011 -44.791547 -0.000001 4.888428 -25.505202 6.915757 6.623663 8.979772 -3.539860 12.313521 21.410403 22.588559 7.311011 -26.061273 34.919786 0.000002 0.000001 0.000001 -4.791508 0.207806 -26.825491 0.022588 0.514491 -5.027120 0.006131 -0.268284 2.618924 0.000001 0.000002 -0.000002 0.903573 5.384432 -29.386052 0.058673 0.827928 -8.106758 0.018909 0.470687 -4.598248 -0.000002 0.000001 0.000002 1.494329 6.668394 -25.515801 0.117665 1.169432 -11.490228 0.018178 0.461504 -4.508256 0.000002 -0.000000 0.000009 0.555449 4.710695 -24.725106 0.042675 0.706603 -6.912444 0.002763 0.179834 -1.755365 0.000001 -0.000000 0.000001 1.268188 17.554484 2.989949 8.533223 -28.164796 89.114025 0.000012 28.403589 -0.000035 -57.520274 8.864947 -89.808122 -10.384019 12.273345 -23.900905 11.156686 -31.584728 -20.788359 4.485017 -17.493627 0.426897 0.000002 -0.000001 -0.000002 2.553030 6.415215 -17.160924 0.020215 -0.433898 5.334151 0.059068 -0.740195 9.125401 -0.000000 -0.000001 -0.000001 0.974602 1.037874 -20.454007 0.067091 -0.788510 9.726723 0.190789 -1.320675 16.439656 0.000000 -0.000000 -0.000004 -1.280965 -6.278270 -16.197024 0.008115 -0.275259 3.380584 0.106309 -0.990360 12.251937 0.000000 -0.000000 -0.000002 -9.786618 -12.218283 -19.604998 0.032696 -0.551491 6.785977 0.002017 -0.136952 1.681381 -0.000000 -0.000002 0.000002 -106.286657 -5.803645 18.252632 108.700664 -4.603609 -1.431207 9.712399 -0.499994 -9.397501 -14.097398 -0.000003 -0.000004 -0.000001 0.000000 -0.000001 -114.203755 3.796213 -12.572662 66.738427 6.498156 7.610679 2.292008 -1.077009 2.689630 3.175281 -0.000003 -0.000002 0.000000 0.000001 -0.000001 
-0.714905 25.250336 38.185062 -25.515070 -2.216277 16.149909 15.388604 -3.342820 -0.751938 8.886538 0.476340 -0.473235 8.889315 0.435061 -0.780680 6.865663 -1.705611 5.398667 -4.729018 0.855573 -10.970523 0.000000 -0.000000 -0.000001 3.308591 -28.722506 8.933553 -26.465135 -43.863171 -18.009365 0.000017 -45.339656 0.000003 4.742187 -26.425280 7.053037 6.675847 9.262875 -3.760954 12.265273 21.313597 22.864524 7.537955 -26.339597 35.317115 0.000002 -0.000003 -0.000001 -4.823013 0.010675 -26.384249 0.021498 0.502026 -4.904957 0.006062 -0.266627 2.602734 0.000001 -0.000002 0.000001 0.867961 5.322774 -29.075388 0.055913 0.808336 -7.913730 0.018147 0.461297 -4.506181 -0.000001 0.000003 0.000005 1.461689 6.619159 -25.277728 0.112915 1.145889 -11.255610 0.017584 0.454031 -4.435081 0.000002 0.000000 0.000006 0.547130 4.691601 -24.502120 0.040791 0.690857 -6.757484 0.002563 0.173725 -1.695461 -0.000001 0.000001 0.000001 1.437641 18.585197 2.357204 8.018500 -28.267800 90.243991 0.000012 26.957466 -0.000033 -57.468010 8.184656 -89.337440 -9.358464 12.295483 -24.346858 11.024440 -31.662144 -20.621490 4.414218 -17.567209 0.367666 0.000002 -0.000004 -0.000001 2.361916 5.817270 -17.151283 0.019640 -0.427666 5.257466 0.058413 -0.736129 9.074753 0.000000 -0.000001 -0.000001 0.873611 0.773102 -20.398457 0.064867 -0.775403 9.563568 0.186862 -1.307299 16.268495 0.000001 -0.000000 -0.000004 -1.322327 -6.424620 -16.200029 0.007382 -0.262368 3.222624 0.103821 -0.978934 12.107840 0.000000 0.000001 -0.000003 -8.742870 -12.448249 -19.488773 0.031430 -0.540724 6.652776 0.001986 -0.136367 1.674193 0.000001 0.000001 0.000004 -109.741974 -6.309850 16.308292 106.967237 -2.991263 -0.618372 13.921963 -0.857914 -9.610306 -14.272889 0.000002 0.000004 0.000001 0.000000 -0.000000 -109.877240 5.875268 -12.389969 63.645752 4.243709 7.550311 -6.592076 -1.233634 0.884773 3.551669 -0.000008 -0.000000 0.000000 -0.000001 0.000000 
